<svg xmlns="http://www.w3.org/2000/svg" viewBox="0 0 166 166">
  <defs>
    <clipPath id="a">
      <path transform="translate(146.222 459.222)" fill="#eff3f5" d="M0 0h166v166H0z"/>
    </clipPath>
  </defs>
  <g transform="translate(-146.222 -459.222)" clip-path="url(#a)">
    <path d="M310.99 516.244c-1.537-.851-2.239-.14-2.8-.851s1.537-2.516-2.656-4.333c0 0-.281-3.912-6.01-4.052s-4.193 3.912-5.729 4.891-1.958-.558-3.495.426-.851 2.933-2.094 3.214c-1.149.255-2.643-1-4.065-.477a21.244 21.244 0 00-1.958-4.533c-5.189-8.909-16.5-13.016-25.36-15.523-28.191-7.974-35.01 11.604-52.483 22.383s-38.011.851-47.988 8.594-13.305 26.978-8.436 35.848 15.638 11.761 17.3 16.013 1.145 5.644 1.145 5.644h130.678c1.022 0 3.72-5.47 4.257-6.534 3.014-6.048 3.38-12.05-1.911-16.7-5.108-4.486-13.94-7.308-14.561-15.647s1.515-17.818.072-26.275h27.2a1.784 1.784 0 00-1.106-2.088zM203.447 564.73H168.09s.979-.7 1.818-1.277 2.235 0 2.933 0 .7-.851 2.239-1.813 3.214.558 4.469.277.562-2.235 2.1-3.214 1.958.558 3.495-.426 0-5.035 5.729-4.895 6.01 4.056 6.01 4.056c4.193 1.813 2.094 3.631 2.656 4.329s1.256 0 2.8.851a1.815 1.815 0 011.108 2.112zm57.343-62.243h-22.687s.626-.426 1.166-.8 1.434 0 1.881 0 .451-.541 1.434-1.166 2.064.358 2.873.179.358-1.434 1.345-2.064 1.256.358 2.243-.268 0-3.231 3.678-3.141 3.856 2.6 3.856 2.6c2.69 1.166 1.345 2.333 1.7 2.784s.809 0 1.8.536a1.153 1.153 0 01.711 1.34zM219.047 480.749c-1.541-.851-2.239-.14-2.8-.851s1.54-2.515-2.652-4.333c0 0-.281-3.912-6.01-4.052s-4.193 3.912-5.729 4.891-1.958-.558-3.495.426-.851 2.933-2.1 3.214-2.933-1.277-4.469-.281-1.54 1.82-2.238 1.82-2.094-.558-2.933 0-1.818 1.277-1.818 1.277h35.359a1.817 1.817 0 00-1.115-2.111z" fill="#d33f49"/>
    <g opacity=".7" fill="#fff">
      <path d="M310.99 516.244c-1.537-.851-2.239-.14-2.8-.851s1.537-2.516-2.656-4.333c0 0-.281-3.912-6.01-4.052s-4.193 3.912-5.729 4.891-1.958-.558-3.495.426-.851 2.933-2.094 3.214c-1.149.255-2.643-1-4.065-.477a21.244 21.244 0 00-1.958-4.533c-5.189-8.909-16.5-13.016-25.36-15.523-28.191-7.974-35.01 11.604-52.483 22.383s-38.011.851-47.988 8.594-13.305 26.978-8.436 35.848 15.638 11.761 17.3 16.013 1.145 5.644 1.145 5.644h130.678c1.022 0 3.72-5.47 4.257-6.534 3.014-6.048 3.38-12.05-1.911-16.7-5.108-4.486-13.94-7.308-14.561-15.647s1.515-17.818.072-26.275h27.2a1.784 1.784 0 00-1.106-2.088zM203.447 564.73H168.09s.979-.7 1.818-1.277 2.235 0 2.933 0 .7-.851 2.239-1.813 3.214.558 4.469.277.562-2.235 2.1-3.214 1.958.558 3.495-.426 0-5.035 5.729-4.895 6.01 4.056 6.01 4.056c4.193 1.813 2.094 3.631 2.656 4.329s1.256 0 2.8.851a1.815 1.815 0 011.108 2.112zm57.343-62.243h-22.687s.626-.426 1.166-.8 1.434 0 1.881 0 .451-.541 1.434-1.166 2.064.358 2.873.179.358-1.434 1.345-2.064 1.256.358 2.243-.268 0-3.231 3.678-3.141 3.856 2.6 3.856 2.6c2.69 1.166 1.345 2.333 1.7 2.784s.809 0 1.8.536a1.153 1.153 0 01.711 1.34zM219.047 480.749c-1.541-.851-2.239-.14-2.8-.851s1.54-2.515-2.652-4.333c0 0-.281-3.912-6.01-4.052s-4.193 3.912-5.729 4.891-1.958-.558-3.495.426-.851 2.933-2.1 3.214-2.933-1.277-4.469-.281-1.54 1.82-2.238 1.82-2.094-.558-2.933 0-1.818 1.277-1.818 1.277h35.359a1.817 1.817 0 00-1.115-2.111z"/>
    </g>
    <path d="M308.396 556.012l4.154 11.131h-2.83l-2.831-8.679z" fill="#fff" stroke="#2e353a" stroke-linecap="round" stroke-linejoin="round" stroke-width=".154"/>
    <path d="M310.66 583.496h-37.419v-19.12l34.742-5.308 2.677 7.381z" fill="#2e353a"/>
    <path fill="#2e353a" d="M229.591 525.634h48.805v57.863h-48.805z"/>
    <path d="M226.586 530.311l-2.073-2.69 29.753-22.972 29.212 22.555-2.073 2.69-27.139-20.955z" fill="#2e353a"/>
    <path stroke-width=".154" stroke="#2e353a" stroke-linecap="round" stroke-linejoin="round" fill="#fff" d="M220.661 525.634h48.805v57.863h-48.805z"/>
    <path d="M245.064 506.794l-24.403 18.839h48.805z" fill="#fff" stroke="#2e353a" stroke-linejoin="round" stroke-width=".154"/>
    <path d="M245.064 506.794l-24.403 18.839v4.291l5.559-4.291 18.844-14.548 18.847 14.548 5.555 4.291v-4.291z" fill="#d33f49"/>
    <path stroke-width=".154" stroke="#2e353a" stroke-linecap="round" stroke-linejoin="round" fill="#fff" d="M269.466 564.376h37.423v19.12h-37.423z"/>
    <path stroke-width=".154" stroke="#2e353a" stroke-linecap="round" stroke-linejoin="round" fill="#d33f49" d="M273.241 564.376h29.876v19.12h-29.876z"/>
    <path fill="#d33f49" d="M269.466 564.376h37.423v4.099h-37.423z"/>
    <path stroke-width=".154" stroke="#2e353a" stroke-linecap="round" stroke-linejoin="round" fill="none" d="M273.241 569.974h29.872M273.241 572.804h29.872M273.241 575.635h29.872M273.241 578.465h29.872M273.241 581.296h29.872"/>
    <path fill="#2e353a" d="M224.687 562.112h9.811v21.385h-9.811z"/>
    <path stroke-width=".154" stroke="#2e353a" stroke-linecap="round" stroke-linejoin="round" fill="#fff" d="M239.653 562.112h9.811v14.842h-9.811z"/>
    <path fill="#2e353a" d="M239.653 568.905h9.811v1.26h-9.811z"/>
    <path fill="#2e353a" d="M243.931 562.112h1.26v14.842h-1.26z"/>
    <path stroke-width=".154" stroke="#2e353a" stroke-linecap="round" stroke-linejoin="round" fill="#fff" d="M257.641 562.112h9.811v14.842h-9.811z"/>
    <path fill="#2e353a" d="M257.641 568.905h9.811v1.26h-9.811z"/>
    <path fill="#2e353a" d="M261.919 562.112h1.26v14.842h-1.26z"/>
    <path stroke-width=".154" stroke="#2e353a" stroke-linecap="round" stroke-linejoin="round" fill="#fff" d="M252.929 562.112h1.881v21.385h-1.881zM236.482 562.112h1.881v21.385h-1.881z"/>
    <path fill="#2e353a" d="M222.925 562.993h44.527v2.767h-44.527z"/>
    <path stroke-width=".154" stroke="#2e353a" stroke-linecap="round" stroke-linejoin="round" fill="#d33f49" d="M222.925 561.61h44.527v2.767h-44.527z"/>
    <path d="M217.383 530.311l-2.077-2.69 29.757-22.972 29.213 22.555-2.073 2.69-27.14-20.955z" fill="#fff" stroke="#2e353a" stroke-linejoin="round" stroke-width=".154"/>
    <path d="M306.889 567.143h-41.144l3.776-11.131h38.875zM274.276 527.204h8.424l-28.434-22.555h-9.2zM272.203 529.894h9.2l2.073-2.69h-9.2z" fill="#2e353a"/>
    <path stroke-width=".154" stroke="#2e353a" stroke-linecap="round" stroke-linejoin="round" fill="#fff" d="M224.687 534.189h5.282v8.556h-5.282z"/>
    <path fill="#2e353a" d="M224.687 538.467h5.282v4.278h-5.282z"/>
    <path stroke-width=".154" stroke="#2e353a" stroke-linecap="round" stroke-linejoin="round" fill="#fff" d="M224.687 537.99h5.282v.953h-5.282zM224.687 546.516h5.282v8.556h-5.282z"/>
    <path fill="#2e353a" d="M224.687 550.751h5.282v4.316h-5.282z"/>
    <path stroke-width=".154" stroke="#2e353a" stroke-linecap="round" stroke-linejoin="round" fill="#fff" d="M260.408 534.189h5.282v8.556h-5.282z"/>
    <path fill="#2e353a" d="M260.408 538.467h5.282v4.278h-5.282z"/>
    <path stroke-width=".154" stroke="#2e353a" stroke-linecap="round" stroke-linejoin="round" fill="#fff" d="M260.408 546.516h5.282v8.556h-5.282z"/>
    <path fill="#2e353a" d="M260.408 550.274h5.282v4.793h-5.282z"/>
    <path stroke-width=".154" stroke="#2e353a" stroke-linecap="round" stroke-linejoin="round" fill="#fff" d="M241.918 534.189h5.282v8.556h-5.282z"/>
    <path fill="#2e353a" d="M241.918 538.467h5.282v4.278h-5.282z"/>
    <path stroke-width=".154" stroke="#2e353a" stroke-linecap="round" stroke-linejoin="round" fill="#fff" d="M241.918 546.516h5.282v8.556h-5.282z"/>
    <path fill="#2e353a" d="M241.918 550.274h5.282v4.793h-5.282z"/>
    <path stroke-width=".154" stroke="#2e353a" stroke-linecap="round" stroke-linejoin="round" fill="#fff" d="M241.918 537.99h5.282v.953h-5.282zM260.408 537.99h5.282v.953h-5.282zM224.687 549.798h5.282v.953h-5.282zM241.918 549.798h5.282v.953h-5.282zM260.408 549.798h5.282v.953h-5.282z"/>
    <path stroke-width=".154" stroke="#2e353a" stroke-linecap="round" stroke-linejoin="round" fill="none" d="M224.964 528.213v2.098M228.74 528.213v2.098M226.586 530.311v2.098M230.898 530.311v2.098M223.291 530.311h8.624M224.964 556.242v2.098M228.74 556.242v2.098M226.586 558.341v2.098M230.898 558.341v2.098M223.291 558.341h8.624M232.613 536.364v2.103M236.388 536.364v2.103M234.235 538.467v2.098M238.547 538.467v2.098M230.94 538.467h8.624M232.613 540.565h6.951M232.613 540.642v2.098M236.388 540.642v2.098M234.235 542.74v2.098M238.547 542.74v2.098M230.94 542.74h8.624M251.418 550.368v2.098M255.194 550.368v2.098M253.04 552.467v2.098M257.352 552.467v2.098M249.745 552.467h8.624M251.418 554.565h6.951M251.418 554.646v2.098M255.194 554.646v2.098M253.04 556.744v2.098M257.352 556.744v2.098M249.745 556.744h8.624"/>
    <g>
      <path d="M150.165 589.431c8.368 3.461 29.872-.285 27.667 3.75s-19.048 2.52-23.836 6.883 17 4.014 16.226 5.338-19.939 2.229-18.679 4.009h129.151c.209-1.4-1.277-3.09-3.7-4.257-19.231-.787-84.4-3.673-77.571-6.461 8-3.26 34.129-6.521 38.9-9.075s-16.379-2.839-19.92-3.971c-1.141-.366-1.277-.724-.907-1.034l.609.038v-.387a16.8 16.8 0 012.98-.779h-2.98v-.736l-.426.268-.728.468h-.234a14.114 14.114 0 00.6-2.835c.166-1.664-2.171 2.1-2.171 2.1a4.114 4.114 0 000-2.1c-.332-.821-1.337 1.111-1.337 1.111s1.171-4.618 0-7.619-2.49 7.619-2.49 7.619-.179-4.12-1.681-4.2c-1.217-.068-.464 2.733-.132 3.8a4.652 4.652 0 00-1.115-1.575c-1.077-1.03 0 2.379 0 2.379s-.426-1.013-3.239-1.511 1.149 2.2 1.149 2.2a35.382 35.382 0 00-3.707-.851c-.621-.1-.673.051-.468.306l-.4.26-1.3.851a17.711 17.711 0 00.851-3.856c.213-2.128-2.762 2.673-2.762 2.673a5.2 5.2 0 000-2.673c-.426-1.06-1.7 1.413-1.7 1.413s1.49-5.878 0-9.7-3.171 9.7-3.171 9.7-.23-5.24-2.128-5.346c-1.545-.085-.6 3.452-.17 4.818a5.9 5.9 0 00-1.413-1.988c-1.375-1.311 0 3.026 0 3.026s-.541-1.277-4.125-1.924 1.46 2.809 1.46 2.809a44.752 44.752 0 00-4.72-1.081c-2.384-.392 1.813 2.2 1.813 2.2h-31.643s-10.914 2.479-2.553 5.94zm52.108-6.947a10.6 10.6 0 001.366 1.026h-1.367z" fill="#d33f49"/>
      <path d="M253.414 589.941c-4.836 2.239-16.843 4.589-16.843 4.589-1.911.26.677 2.707 13.949 1.494l22.712-12.527h-43.523c1.456.749 11.825 2.477 17.724 2.477s10.816 1.724 5.981 3.967zM288.186 583.497h8.581c-4.308-.166-8.581 0-8.581 0zM302.342 583.995l-20.384 13.135c2.584-.1 5.287-.162 7.9-.226 11.293-.272 7.194-5.172 7.96-6.9s7.176-1.443 7.687-4.325c.149-.816-1.184-1.344-3.163-1.684z" fill="#d33f49"/>
      <g opacity=".3" fill="#fff">
        <path d="M150.165 589.431c8.368 3.461 29.872-.285 27.667 3.75s-19.048 2.52-23.836 6.883 17 4.014 16.226 5.338-19.939 2.229-18.679 4.009h129.151c.209-1.4-1.277-3.09-3.7-4.257-19.231-.787-84.4-3.673-77.571-6.461 8-3.26 34.129-6.521 38.9-9.075s-16.379-2.839-19.92-3.971c-1.141-.366-1.277-.724-.907-1.034l.609.038v-.387a16.8 16.8 0 012.98-.779h-2.98v-.736l-.426.268-.728.468h-.234a14.114 14.114 0 00.6-2.835c.166-1.664-2.171 2.1-2.171 2.1a4.114 4.114 0 000-2.1c-.332-.821-1.337 1.111-1.337 1.111s1.171-4.618 0-7.619-2.49 7.619-2.49 7.619-.179-4.12-1.681-4.2c-1.217-.068-.464 2.733-.132 3.8a4.652 4.652 0 00-1.115-1.575c-1.077-1.03 0 2.379 0 2.379s-.426-1.013-3.239-1.511 1.149 2.2 1.149 2.2a35.382 35.382 0 00-3.707-.851c-.621-.1-.673.051-.468.306l-.4.26-1.3.851a17.711 17.711 0 00.851-3.856c.213-2.128-2.762 2.673-2.762 2.673a5.2 5.2 0 000-2.673c-.426-1.06-1.7 1.413-1.7 1.413s1.49-5.878 0-9.7-3.171 9.7-3.171 9.7-.23-5.24-2.128-5.346c-1.545-.085-.6 3.452-.17 4.818a5.9 5.9 0 00-1.413-1.988c-1.375-1.311 0 3.026 0 3.026s-.541-1.277-4.125-1.924 1.46 2.809 1.46 2.809a44.752 44.752 0 00-4.72-1.081c-2.384-.392 1.813 2.2 1.813 2.2h-31.643s-10.914 2.479-2.553 5.94zm52.108-6.947a10.6 10.6 0 001.366 1.026h-1.367z"/>
        <path d="M253.414 589.941c-4.836 2.239-16.843 4.589-16.843 4.589-1.911.26.677 2.707 13.949 1.494l22.712-12.527h-43.523c1.456.749 11.825 2.477 17.724 2.477s10.816 1.724 5.981 3.967zM288.186 583.497h8.581c-4.308-.166-8.581 0-8.581 0zM302.342 583.995l-20.384 13.135c2.584-.1 5.287-.162 7.9-.226 11.293-.272 7.194-5.172 7.96-6.9s7.176-1.443 7.687-4.325c.149-.816-1.184-1.344-3.163-1.684z"/>
      </g>
    </g>
    <g>
      <path d="M177.538 511.907v34.333h49.941v-34.333zm4.64 4.218a1.379 1.379 0 111.379-1.379 1.379 1.379 0 01-1.38 1.38zm40.616 0a1.379 1.379 0 111.379-1.379 1.379 1.379 0 01-1.379 1.379z" fill="#d33f49" stroke="#2e353a" stroke-miterlimit="10" stroke-width=".173"/>
      <path d="M224.172 514.746a1.379 1.379 0 11-1.379-1.379h-40.616a1.379 1.379 0 11-1.379 1.379 1.379 1.379 0 011.379-1.379h-3.2v30.979h46.591v-30.979h-2.775a1.379 1.379 0 011.379 1.379z" fill="#2e353a"/>
      <path d="M182.177 498.627a2 2 0 101.42.586 2 2 0 00-1.42-.586zm0 3.341a.555.555 0 110 .013zM182.177 503.441a2 2 0 101.42.586 2.009 2.009 0 00-1.42-.586zm0 3.346a1.341 1.341 0 111.341-1.341 1.341 1.341 0 01-1.341 1.341z" fill="#fff" stroke="#2e353a" stroke-linecap="round" stroke-linejoin="round" stroke-width=".159"/>
      <path d="M182.177 507.684a2 2 0 101.42.586 2 2 0 00-1.42-.586zm0 3.341a1.337 1.337 0 111.341-1.337 1.337 1.337 0 01-1.341 1.337zM182.177 505.228h0a.353.353 0 01-.353-.353v-3.307a.353.353 0 01.353-.353h0a.358.358 0 01.358.353v3.307a.358.358 0 01-.358.353z" fill="#fff" stroke="#2e353a" stroke-linecap="round" stroke-linejoin="round" stroke-width=".159"/>
      <path d="M182.177 509.779h0a.353.353 0 01-.353-.353v-3.308a.353.353 0 01.353-.353h0a.358.358 0 01.358.353v3.307a.358.358 0 01-.358.354zM182.177 514.338h0a.353.353 0 01-.353-.353v-3.308a.353.353 0 01.353-.353h0a.358.358 0 01.358.353v3.307a.358.358 0 01-.358.353zM222.792 498.627a2 2 0 101.42.586 2 2 0 00-1.42-.586zm0 3.341a.555.555 0 110 .013zM222.792 503.441a2 2 0 101.42.586 2.009 2.009 0 00-1.42-.586zm0 3.346a1.341 1.341 0 111.341-1.341 1.341 1.341 0 01-1.341 1.341z" fill="#fff" stroke="#2e353a" stroke-linecap="round" stroke-linejoin="round" stroke-width=".159"/>
      <path d="M222.792 507.684a2 2 0 101.42.586 2 2 0 00-1.42-.586zm0 3.341a1.337 1.337 0 111.341-1.337 1.337 1.337 0 01-1.341 1.337zM222.793 505.228h0a.353.353 0 01-.353-.353v-3.307a.353.353 0 01.353-.353h0a.358.358 0 01.358.353v3.307a.358.358 0 01-.358.353z" fill="#fff" stroke="#2e353a" stroke-linecap="round" stroke-linejoin="round" stroke-width=".159"/>
      <path d="M222.793 509.779h0a.353.353 0 01-.353-.353v-3.308a.353.353 0 01.353-.353h0a.358.358 0 01.358.353v3.307a.358.358 0 01-.358.354zM222.793 514.338h0a.353.353 0 01-.353-.353v-3.308a.353.353 0 01.353-.353h0a.358.358 0 01.358.353v3.307a.358.358 0 01-.358.353z" fill="#fff" stroke="#2e353a" stroke-linecap="round" stroke-linejoin="round" stroke-width=".159"/>
      <path d="M233.162 499.687h-78l-2.452-6.776h85.836z" fill="#2e353a" stroke="#2e353a" stroke-linecap="round" stroke-linejoin="round" stroke-width=".154"/>
      <path d="M231.174 499.687h-78l-2.452-6.776h85.845z" fill="#fff" stroke="#2e353a" stroke-linecap="round" stroke-linejoin="round" stroke-width=".154"/>
      <path d="M167.654 607.325h-6.38l1.928-133.185h1.132l3.32 4.712z" fill="#2e353a" stroke="#2e353a" stroke-linecap="round" stroke-linejoin="round" stroke-width=".154"/>
      <path d="M166.517 607.325h-6.38V478.847l3.065-4.707 3.316 4.712z" fill="#fff" stroke="#2e353a" stroke-linecap="round" stroke-linejoin="round" stroke-width=".154"/>
      <g fill="#fff" font-family="Lato-Bold, Lato" font-weight="700">
        <text transform="translate(190.725 526.112)" font-size="11">
          <tspan x="0" y="0">FOR</tspan>
        </text>
        <text transform="translate(187.963 539.447)" font-size="12">
          <tspan x="0" y="0">SALE</tspan>
        </text>
      </g>
      <path stroke-width=".154" stroke="#2e353a" stroke-linecap="round" stroke-linejoin="round" fill="none" d="M161.273 607.325v-8.194M162.389 607.325v-29.927M161.273 597.889v-2.98M164.462 554.575v-2.98M161.273 480.12v-2.98M161.273 484.045v-2.98M164.462 573.465V557.92M151.352 494.324h2.235M152.343 495.443h5.342M172.2 495.443h5.338M174.869 496.686h1.877M184.348 496.686h11.144M233.68 496.686h-1.864M232.808 497.554h-6.329"/>
      <path d="M147.184 609.296h4.176s-7.581-6.759-4.176-6.07a17.185 17.185 0 016.385 3.09s-4.027-3.788-1.243-3.1 2.669 1.83 2.669 1.83.217-8.185 2.673-5.925a7.236 7.236 0 012.452 4.891s5.248-6.491 6.385-6.134 1.14 4.331 1.14 4.331 8.815-7.185 7.215-3.086a30.638 30.638 0 01-2.669 5.64s4.137-3.656 3.61-1.545a17.755 17.755 0 01-.941 2.98s6.223 1.949 5.3 1.945a7.052 7.052 0 00-2.635 1.179s10.509-1.7 8.513 0-18.405 1.417-18.405 1.417 8.012 1.963 4.567 1.963a45.446 45.446 0 01-8.871-1.422s-8.084 1.703-10.984 1.422 5.342-1.422 5.342-1.422-15.683.016-10.503-1.984z" fill="#2e353a" stroke="#2e353a" stroke-linecap="round" stroke-linejoin="round" stroke-width=".159"/>
    </g>
  </g>
</svg>