<svg xmlns="http://www.w3.org/2000/svg" viewBox="0 0 500 500"><g id="freepik--Floor--inject-59"><path id="freepik--floor--inject-59" d="M81.82,446.22c-92.88-53.63-92.88-140.58,0-194.2s243.48-53.63,336.36,0,92.88,140.57,0,194.2S174.7,499.84,81.82,446.22Z" style="fill:#f0f0f0"></path></g><g id="freepik--Shadows--inject-59"><path id="freepik--Shadow--inject-59" d="M207.67,456.34,65.87,374.41c-5.53-3.2-5.53-8.42,0-11.62l229.6-132.66a9.23,9.23,0,0,1,8.29,0L449,314.08a4.38,4.38,0,0,1,0,7.59L216,456.34A9.23,9.23,0,0,1,207.67,456.34Z" style="fill:#e0e0e0"></path><ellipse id="freepik--shadow--inject-59" cx="384.29" cy="414.64" rx="52.56" ry="30.34" style="fill:#e0e0e0"></ellipse></g><g id="freepik--Plants--inject-59"><g id="freepik--plants--inject-59"><path d="M80.51,326.81s-.3-21.35-9.17-38.78S49.06,258.94,35.7,256.54s-25.46,8.9-11.9,18.84,38.28,21.16,46.89,54.14Z" style="fill:#5AEA90"></path><path d="M80.51,326.81s-.3-21.35-9.17-38.78S49.06,258.94,35.7,256.54s-25.46,8.9-11.9,18.84,38.28,21.16,46.89,54.14Z" style="opacity:0.15"></path><path d="M77.11,320.93a.35.35,0,0,0,.14,0,.71.71,0,0,0,.49-.89c-10.72-36.4-36.31-53.7-48.35-57.76a.72.72,0,0,0-.46,1.36c11.79,4,36.87,21,47.43,56.8A.71.71,0,0,0,77.11,320.93Z" style="fill:#fff"></path><g id="freepik--Plant--inject-59"><path d="M81.86,347c-5,2.85-7.8,4.7-16.89,5.46a48.11,48.11,0,0,1-19.1-2.59c-1.69-.61-4.3-1.94-2.83-3.56.76-.84,9.68-2.26,12.87-6a58.85,58.85,0,0,1-12.51,2.22,16.33,16.33,0,0,1-10.85-3.33c-2.95-2.46-4.54-6.13-6-9.67-.51-1.21-1-2.69-.21-3.74a3.78,3.78,0,0,1,2.16-1.15l10.13-2.83c2.21-.47.65-1.92-.18-2.05a19.1,19.1,0,0,0-3.68-.16c-3.87.21-8.14.94-11.3-1.31A9.45,9.45,0,0,1,20,312.39c-.16-.8-.83-11.24-.37-11.37a51.85,51.85,0,0,1,7.73-1.34c2.45-.29,4.84-.4,7.28-.73a61,61,0,0,1,8.32-.54,5.1,5.1,0,0,1,2.74.54,4.42,4.42,0,0,1,1.68,3.37,15.87,15.87,0,0,0,.52,3.84c1.18-.1,1.57-1.65,1.54-2.84s0-2.68,1.07-3.19a2.84,2.84,0,0,1,1.78,0,48.6,48.6,0,0,1,11,3.65,12.63,12.63,0,0,1,4.33,2.95c1.7,2,2.2,4.72,2.22,7.33s-.39,5.2-.22,7.8c2-1.82,4.87-7.35,5.09-10.07,4.38,2.81,7,8.62,7.79,16.55a80.28,80.28,0,0,1-.32,17.45C82.07,345.93,82,346.86,81.86,347Z" style="fill:#5AEA90"></path><path d="M81.86,347c-5,2.85-7.8,4.7-16.89,5.46a48.11,48.11,0,0,1-19.1-2.59c-1.69-.61-4.3-1.94-2.83-3.56.76-.84,9.68-2.26,12.87-6a58.85,58.85,0,0,1-12.51,2.22,16.33,16.33,0,0,1-10.85-3.33c-2.95-2.46-4.54-6.13-6-9.67-.51-1.21-1-2.69-.21-3.74a3.78,3.78,0,0,1,2.16-1.15l10.13-2.83c2.21-.47.65-1.92-.18-2.05a19.1,19.1,0,0,0-3.68-.16c-3.87.21-8.14.94-11.3-1.31A9.45,9.45,0,0,1,20,312.39c-.16-.8-.83-11.24-.37-11.37a51.85,51.85,0,0,1,7.73-1.34c2.45-.29,4.84-.4,7.28-.73a61,61,0,0,1,8.32-.54,5.1,5.1,0,0,1,2.74.54,4.42,4.42,0,0,1,1.68,3.37,15.87,15.87,0,0,0,.52,3.84c1.18-.1,1.57-1.65,1.54-2.84s0-2.68,1.07-3.19a2.84,2.84,0,0,1,1.78,0,48.6,48.6,0,0,1,11,3.65,12.63,12.63,0,0,1,4.33,2.95c1.7,2,2.2,4.72,2.22,7.33s-.39,5.2-.22,7.8c2-1.82,4.87-7.35,5.09-10.07,4.38,2.81,7,8.62,7.79,16.55a80.28,80.28,0,0,1-.32,17.45C82.07,345.93,82,346.86,81.86,347Z" style="opacity:0.30000000000000004"></path><path d="M81,346a.61.61,0,0,1-.53-.32c-14.19-27.24-45.57-38.72-53.2-40.3a.6.6,0,0,1,.25-1.18c7.74,1.61,39.61,13.26,54,40.93a.59.59,0,0,1-.25.8A.55.55,0,0,1,81,346Z" style="fill:#fff"></path><path d="M39.82,330.27a.61.61,0,0,1-.6-.56.59.59,0,0,1,.55-.64c15.66-1.23,20.72-7.36,20.77-7.42a.6.6,0,0,1,.94.74c-.21.27-5.37,6.6-21.61,7.87Z" style="fill:#fff"></path></g></g><g id="freepik--plants--inject-59"><path d="M460,254.3c-6.94,7.59-19.67,20.08-27.07,32.14a.41.41,0,0,0-.05.09c-2.89,4.73-5,9.39-5.53,13.66l-.52,7.71-3.17-1.83-.53-.31-1.31-.75h0a6.27,6.27,0,0,1-3.12-5.25c-.51-18.8,4.52-34.78,9.38-44.45,6.65-13.21,19.11-26.68,29.94-25.36C468.13,231.18,469.72,243.72,460,254.3Z" style="fill:#5AEA90"></path><path d="M460,254.3c-6.94,7.59-19.67,20.08-27.07,32.14a.41.41,0,0,0-.05.09c-2.89,4.73-5,9.39-5.53,13.66l-.52,7.71-3.17-1.83-.53-.31-1.31-.75h0a6.27,6.27,0,0,1-3.12-5.25c-.51-18.8,4.52-34.78,9.38-44.45,6.65-13.21,19.11-26.68,29.94-25.36C468.13,231.18,469.72,243.72,460,254.3Z" style="opacity:0.15"></path><path d="M454.93,237.24c-13.26,8.38-32.19,37.59-31.76,68.52l-1.31-.75c-.11-31.12,19-60.4,32.37-68.87a.65.65,0,0,1,.7,1.1Z" style="fill:#fff"></path><path d="M467.9,279.08c-2.31,6.27-15.49,11.71-25.22,20.76a63.17,63.17,0,0,0-6.68,7.25,6.12,6.12,0,0,1-7.89,1.52h0l-1.16-.67-.08,0-3.17-1.83a64,64,0,0,1,9.22-19.54.41.41,0,0,1,.05-.09c6.44-9.34,14.39-16.09,19.94-17.62C463.82,265.82,470.67,271.55,467.9,279.08Z" style="fill:#5AEA90"></path><path d="M467.9,279.08c-2.31,6.27-15.49,11.71-25.22,20.76a63.17,63.17,0,0,0-6.68,7.25,6.12,6.12,0,0,1-7.89,1.52h0l-1.16-.67-.08,0-3.17-1.83a64,64,0,0,1,9.22-19.54.41.41,0,0,1,.05-.09c6.44-9.34,14.39-16.09,19.94-17.62C463.82,265.82,470.67,271.55,467.9,279.08Z" style="opacity:0.30000000000000004"></path><path d="M458.63,275.31c-8,2.25-23.41,12-30.52,33.3l-1.16-.67c7.21-21.59,22.56-31.41,31.33-33.88a.65.65,0,1,1,.35,1.25Z" style="fill:#fff"></path></g></g><g id="freepik--Device--inject-59"><g id="freepik--Laptop--inject-59"><path d="M73.1,359.31c0,3.47,2.6,7.78,5.8,9.63l126.29,72.93a12.82,12.82,0,0,0,11.6,0L439.16,313.48c3.21-1.85,5.8-6.16,5.8-9.63s-2.59-7.79-5.8-9.64L312.88,221.29a12.82,12.82,0,0,0-11.6,0L78.9,349.68C75.7,351.53,73.1,355.84,73.1,359.31Z" style="fill:#455a64"></path><path d="M445,303.85c0,3.47-2.6,7.77-5.8,9.63L216.79,441.87a12,12,0,0,1-5.8,1.38V430.69a12,12,0,0,0,5.8-1.39L439.17,300.91c2.8-1.61,3.15-4.12,1.05-6C442.91,297.05,445,300.77,445,303.85Z" style="fill:#37474f"></path><path d="M211,430.7v12.55a11.87,11.87,0,0,1-5.8-1.38L78.9,368.94c-3.2-1.85-5.8-6.16-5.8-9.63,0-3.26,2.29-7.25,5.21-9.26-2.6,1.86-2.4,4.6.59,6.33l126.29,72.93A11.87,11.87,0,0,0,211,430.7Z" style="fill:#263238"></path><path d="M67.66,349.88c-2.84-2-2.84-4.66-2.84-8.36V154.64a12.79,12.79,0,0,1,5.8-10L293,16.21c3.21-1.85,6.16-.51,9.17,1.22s4.92,3.24,4.92,6.93V211.24a12.84,12.84,0,0,1-5.8,10L78.9,349.68C74.05,353,70.74,352.06,67.66,349.88Z" style="fill:#37474f"></path><path d="M78.9,349.68c-4.85,3.26-8.16,2.38-11.24.2-2.83-2-2.84-4.66-2.84-8.36V154.65a11.87,11.87,0,0,1,1.69-5.71l8.28,4.81a11.75,11.75,0,0,0-1.69,5.7V346.33C73.1,350,75.69,351.52,78.9,349.68Z" style="fill:#263238"></path><path d="M307.08,24.36c0-3.69-2.6-5.19-5.8-3.35L78.9,149.41a11.66,11.66,0,0,0-4.1,4.33l-8.28-4.81h0a12,12,0,0,1,4.11-4.34L293,16.21c3.2-1.85,6.16-.51,9.16,1.22S307.08,20.67,307.08,24.36Z" style="fill:#455a64"></path><path d="M82,156.1,296.42,32.34c1.92-1.11,3.48-.21,3.48,2V205.76a7.7,7.7,0,0,1-3.48,6L82,335.54c-1.92,1.11-3.48.21-3.48-2V162.12A7.68,7.68,0,0,1,82,156.1Z" style="fill:#263238"></path><path d="M82,156.1a7.68,7.68,0,0,0-3.48,6V332.49l213.14-123a7.7,7.7,0,0,0,3.48-6V33.07Z" style="fill:#5AEA90"></path><path d="M82,156.1a7.68,7.68,0,0,0-3.48,6V332.49l213.14-123a7.7,7.7,0,0,0,3.48-6V33.07Z" style="fill:#fff;opacity:0.65"></path><path d="M95,350,301.37,230.85a6.38,6.38,0,0,1,5.8,0l6,3.15c1.6.93,1.6,2.43,0,3.35L106.73,356.5a6.38,6.38,0,0,1-5.8,0l-6-3.13C93.35,352.44,93.35,350.94,95,350Z" style="fill:#37474f"></path><path d="M111.14,359.65,317.55,240.47a6,6,0,0,1,5.3-.29l53.73,31c1.32.77,1.1,2.14-.5,3.06l-206.17,119a5.94,5.94,0,0,1-5.31.3L110.65,362.7C109.32,361.94,109.54,360.57,111.14,359.65Z" style="fill:#263238"></path><path d="M288.3,290l6.46-3.73c.27-.16.31-.39.09-.52l-5.7-3.3a1,1,0,0,0-.91.06l-6.46,3.73c-.27.16-.31.39-.09.52l5.7,3.29A1,1,0,0,0,288.3,290Zm-9-12.67-6.47,3.73c-.27.16-.31.39-.09.52l5.71,3.29a1,1,0,0,0,.9-.05l6.46-3.73c.28-.16.32-.39.09-.52l-5.7-3.29A1,1,0,0,0,279.28,277.37ZM258.4,289.43l-10.94,6.31c-.27.16-.31.39-.09.52l5.7,3.29a1,1,0,0,0,.91-.05l10.93-6.31c.28-.16.32-.4.09-.53l-5.7-3.29A1,1,0,0,0,258.4,289.43Zm11.43-6.61-6.46,3.73c-.28.16-.32.4-.09.53l5.7,3.29a1,1,0,0,0,.9-.05l6.47-3.73c.27-.16.31-.4.09-.53l-5.7-3.29A1,1,0,0,0,269.83,282.82Zm-25.35,14.64L238,301.19c-.28.16-.32.4-.1.52l5.71,3.3a1,1,0,0,0,.9-.06l6.46-3.73c.28-.16.32-.39.09-.52l-5.7-3.29A1,1,0,0,0,244.48,297.46ZM235,302.92l-6.46,3.73c-.28.15-.32.39-.09.52l5.7,3.29a1,1,0,0,0,.9,0l6.47-3.73c.27-.16.31-.4.09-.53l-5.7-3.29A1,1,0,0,0,235,302.92Zm24,14.4,6.46-3.74c.28-.15.32-.39.09-.52l-5.7-3.29a1,1,0,0,0-.9.05l-6.46,3.73c-.28.16-.32.4-.09.53l5.7,3.29A1,1,0,0,0,259,317.32Zm-9.44,5.45L256,319c.27-.16.31-.39.09-.52l-5.7-3.29a1,1,0,0,0-.91,0L243,319c-.27.16-.31.39-.09.52l5.7,3.29A1,1,0,0,0,249.54,322.77Zm-9.45,5.45,6.46-3.73c.28-.16.32-.39.09-.52l-5.7-3.29a1,1,0,0,0-.9.05l-6.47,3.73c-.27.16-.31.39-.08.52l5.7,3.29A1,1,0,0,0,240.09,328.22Zm-9.45,5.46,6.47-3.73c.27-.16.31-.4.09-.53l-5.7-3.29a1,1,0,0,0-.91.05l-6.46,3.73c-.28.16-.32.4-.09.53l5.7,3.29A1,1,0,0,0,230.64,333.68Zm48.21-38.19,6.46-3.73c.28-.16.32-.39.09-.52L279.7,288a1,1,0,0,0-.9.05l-6.47,3.73c-.27.16-.31.39-.09.52l5.7,3.29A1,1,0,0,0,278.85,295.49Zm-10.42,16.37,14.41-8.32c.28-.16.32-.39.09-.52l-14.66-8.47a1,1,0,0,0-.91.05l-7.45,4.31c-.28.16-.32.39-.09.52l8.15,4.7c.22.13.18.37-.09.53l-6,3.44c-.27.16-.31.39-.09.52l5.7,3.29A1,1,0,0,0,268.43,311.86Zm-42.84-3.49-6.47,3.73c-.27.16-.31.39-.09.52l5.7,3.29a1,1,0,0,0,.91-.05l6.46-3.73c.28-.16.32-.39.09-.52l-5.7-3.29A1,1,0,0,0,225.59,308.37Zm-9.45,5.45-6.46,3.73c-.28.16-.32.4-.09.53l5.7,3.29a1,1,0,0,0,.9-.06l6.47-3.73c.27-.15.31-.39.09-.52L217,313.77A1,1,0,0,0,216.14,313.82ZM163.62,371.9a1,1,0,0,0,.9,0l6.47-3.73c.27-.16.31-.39.09-.52l-5.7-3.29a1,1,0,0,0-.91.05L158,368.09c-.27.16-.31.39-.09.52Zm-23-14.45-6.47,3.73c-.27.16-.31.39-.09.52l5.7,3.29a1,1,0,0,0,.91-.05l6.46-3.73c.28-.16.32-.39.09-.52l-5.7-3.29A1,1,0,0,0,140.58,357.45Zm11.59,10.71a1,1,0,0,0,.9-.05l6.47-3.73c.27-.16.31-.39.09-.52l-5.7-3.3a1,1,0,0,0-.91.06l-6.46,3.73c-.28.16-.32.39-.09.52Zm26.29,6,6.46-3.73c.28-.16.32-.4.09-.53l-5.7-3.29a1,1,0,0,0-.9.05L172,370.4c-.28.15-.32.39-.09.52l5.7,3.29A1,1,0,0,0,178.46,374.16Zm-10.35,5.5a1,1,0,0,0,.91-.05l6.46-3.73c.27-.16.31-.39.09-.52l-5.7-3.29a1,1,0,0,0-.91.05l-6.46,3.73c-.27.16-.31.39-.09.52ZM150,352l-6.46,3.73c-.28.16-.32.39-.09.52l5.7,3.29a1,1,0,0,0,.9-.05l6.47-3.73c.27-.16.31-.39.09-.52l-5.7-3.3A1,1,0,0,0,150,352Zm47.23-27.27-6.46,3.73c-.28.16-.32.39-.09.52l5.7,3.29a1,1,0,0,0,.9,0l6.46-3.73c.28-.16.32-.39.09-.52l-5.7-3.29A1,1,0,0,0,197.25,324.73Zm-37.78,21.81L153,350.27c-.27.16-.31.4-.09.53l5.7,3.29a1,1,0,0,0,.91,0L166,350.3c.28-.15.32-.39.09-.52l-5.7-3.29A1,1,0,0,0,159.47,346.54Zm47.22-27.26L200.23,323c-.27.15-.31.39-.09.52l5.7,3.29a1,1,0,0,0,.91-.05l6.46-3.73c.27-.16.31-.4.09-.53l-5.7-3.29A1,1,0,0,0,206.69,319.28Zm-18.89,10.9-6.46,3.73c-.27.16-.31.4-.09.53l5.7,3.29a1,1,0,0,0,.91-.06l6.46-3.73c.27-.15.31-.39.09-.52l-5.7-3.29A1,1,0,0,0,187.8,330.18Zm-9.44,5.46-6.46,3.73c-.28.16-.32.39-.09.52l5.7,3.29a1,1,0,0,0,.9-.05l6.46-3.73c.28-.16.32-.4.09-.52l-5.7-3.3A1,1,0,0,0,178.36,335.64Zm-9.45,5.45-6.46,3.73c-.27.16-.31.39-.09.52l5.7,3.29a1,1,0,0,0,.91-.05l6.46-3.73c.27-.16.31-.39.09-.52l-5.7-3.29A1,1,0,0,0,168.91,341.09Zm42.84,3.49,6.47-3.73c.27-.16.31-.39.09-.52L212.6,337a1,1,0,0,0-.9,0l-6.46,3.73c-.28.16-.32.39-.09.52l5.7,3.3A1,1,0,0,0,211.75,344.58Zm88.41-79.27-6.47,3.74c-.27.15-.31.39-.09.52l5.71,3.29a1,1,0,0,0,.9-.05l6.46-3.73c.28-.16.32-.4.09-.53l-5.7-3.29A1,1,0,0,0,300.16,265.31Zm-11.44,6.61-6.46,3.73c-.27.16-.31.39-.09.52l5.7,3.29a1,1,0,0,0,.9,0l6.47-3.73c.27-.16.31-.39.09-.52l-5.7-3.3A1,1,0,0,0,288.72,271.92Zm20.88-12.06-6.46,3.73c-.27.16-.31.4-.09.53l5.7,3.29a1,1,0,0,0,.9-.06l6.47-3.73c.27-.16.31-.39.09-.52l-5.7-3.29A1,1,0,0,0,309.6,259.86ZM257,308.12l6.46-3.73c.27-.16.31-.39.09-.52l-5.7-3.29a1,1,0,0,0-.91.05l-6.46,3.73c-.27.16-.31.39-.09.52l5.7,3.29A1,1,0,0,0,257,308.12Zm63-53.76a1,1,0,0,0-.9,0l-6.46,3.73c-.28.16-.32.39-.09.52l5.7,3.29a1,1,0,0,0,.9-.05l6.46-3.73c.28-.16.32-.39.09-.52ZM221.2,339.13l6.46-3.73c.28-.16.32-.39.09-.52l-5.7-3.29a1,1,0,0,0-.9.05l-6.47,3.73c-.27.16-.31.39-.09.52l5.7,3.29A1,1,0,0,0,221.2,339.13ZM337,272.25l6.46-3.73c.28-.16.32-.39.09-.52l-5.7-3.29a1,1,0,0,0-.9.05l-6.46,3.73c-.28.16-.32.39-.09.52l5.7,3.3A1,1,0,0,0,337,272.25Zm-18.41.28,6.46-3.73c.28-.16.32-.39.09-.52l-5.7-3.29a1,1,0,0,0-.9.05l-6.46,3.73c-.28.16-.32.39-.09.52l5.7,3.29A1,1,0,0,0,318.62,272.53Zm10.3-13a1,1,0,0,0-.91.05l-6.46,3.74c-.27.15-.31.39-.09.52l5.7,3.29a1,1,0,0,0,.91-.05l6.46-3.73c.27-.16.31-.4.09-.53Zm2-1.15,14.66,8.47a1,1,0,0,0,.91-.05l6.46-3.73c.27-.16.31-.39.09-.52l-14.67-8.47a1,1,0,0,0-.9,0L331,257.86C330.72,258,330.68,258.25,330.91,258.38Zm-21.79,12.11-6.46,3.73c-.27.16-.32.39-.09.52l5.7,3.3a1,1,0,0,0,.91-.06l6.46-3.73c.27-.16.31-.39.09-.52l-5.7-3.29A1,1,0,0,0,309.12,270.49ZM238,311.54l-6.46,3.73c-.28.16-.32.39-.09.52l5.7,3.29a1,1,0,0,0,.9-.05l6.47-3.73c.27-.16.31-.4.09-.52l-5.7-3.3A1,1,0,0,0,238,311.54Zm88.65-33.78a1,1,0,0,0,.91-.05l6.46-3.73c.27-.16.31-.4.09-.53l-5.7-3.29a1,1,0,0,0-.91,0L321.07,274c-.27.15-.31.39-.09.52Zm-79.2,28.32L241,309.81c-.27.16-.31.4-.08.53l5.7,3.29a1,1,0,0,0,.9-.05l6.46-3.74c.28-.15.32-.39.09-.52l-5.7-3.29A1,1,0,0,0,247.48,306.08Zm-74.41,60.37a1,1,0,0,0,.9-.05l6.46-3.73c.28-.16.32-.4.09-.53l-5.7-3.29a1,1,0,0,0-.9,0l-6.46,3.74c-.28.15-.32.39-.09.52Zm-10.6-11.29L156,358.89c-.27.16-.31.4-.09.53l5.7,3.29a1,1,0,0,0,.91,0l6.46-3.74c.28-.15.32-.39.09-.52l-5.7-3.29A1,1,0,0,0,162.47,355.16Zm20.95,5.78,6.46-3.73c.27-.16.31-.39.09-.52l-5.7-3.29a1,1,0,0,0-.91.05l-6.46,3.73c-.27.16-.31.39-.09.52l5.7,3.3A1,1,0,0,0,183.42,360.94Zm9.44-5.45,6.46-3.73c.28-.16.32-.39.09-.52l-5.7-3.29a1,1,0,0,0-.9.05l-6.46,3.73c-.28.16-.32.39-.09.52l5.7,3.29A1,1,0,0,0,192.86,355.49Zm9.45-5.45,6.46-3.73c.27-.16.31-.4.09-.53l-5.7-3.29a1,1,0,0,0-.91.05l-6.46,3.74c-.27.15-.31.39-.09.52l5.7,3.29A1,1,0,0,0,202.31,350Zm-30.4-.33-6.46,3.73c-.27.16-.31.39-.09.52l5.7,3.29a1,1,0,0,0,.91-.05l6.46-3.73c.27-.16.31-.39.09-.52l-5.7-3.29A1,1,0,0,0,171.91,349.71Zm9.45-5.45L174.9,348c-.28.16-.32.39-.09.52l5.7,3.29a1,1,0,0,0,.9-.05l6.46-3.73c.28-.16.32-.39.09-.52l-5.7-3.3A1,1,0,0,0,181.36,344.26Zm37.78-21.82-6.46,3.73c-.28.16-.32.4-.09.53l5.7,3.29a1,1,0,0,0,.9-.05l6.47-3.74c.27-.15.31-.39.09-.52L220,322.39A1,1,0,0,0,219.14,322.44Zm-9.45,5.46-6.46,3.73c-.27.16-.31.39-.09.52l5.7,3.29a1,1,0,0,0,.91-.05l6.46-3.73c.27-.16.32-.39.09-.52l-5.7-3.3A1,1,0,0,0,209.69,327.9ZM228.59,317l-6.47,3.73c-.27.16-.31.39-.09.52l5.7,3.29a1,1,0,0,0,.91,0l6.46-3.73c.28-.16.32-.39.09-.52l-5.7-3.29A1,1,0,0,0,228.59,317ZM190.8,338.8l-6.46,3.73c-.27.16-.31.4-.09.53l5.7,3.29a1,1,0,0,0,.91-.05l6.46-3.74c.27-.15.31-.39.09-.52l-5.7-3.29A1,1,0,0,0,190.8,338.8Zm9.45-5.45-6.46,3.73c-.28.16-.32.39-.09.52l5.7,3.29a1,1,0,0,0,.9-.05l6.46-3.73c.28-.16.32-.39.09-.52l-5.7-3.29A1,1,0,0,0,200.25,333.35ZM187.91,368.7l6.46-3.73c.27-.16.31-.39.09-.52l-5.7-3.29a1,1,0,0,0-.91,0l-6.46,3.73c-.27.16-.31.39-.09.52l5.7,3.3A1.05,1.05,0,0,0,187.91,368.7Zm-50.17-2.56L132,362.85a1,1,0,0,0-.9,0l-6.46,3.73c-.28.16-.32.4-.09.53l5.7,3.29a1,1,0,0,0,.9-.05l6.47-3.74C137.92,366.51,138,366.27,137.74,366.14Zm12.44,3.17-5.7-3.29a1,1,0,0,0-.9.05l-10,5.74c-.27.16-.31.39-.09.52l5.7,3.29a1,1,0,0,0,.91-.05l9.94-5.74C150.37,369.67,150.41,369.44,150.18,369.31Zm-20.84-9.74-5.7-3.29a1,1,0,0,0-.9.06l-8,4.59c-.27.16-.31.39-.09.52l5.7,3.29a1,1,0,0,0,.91-.05l8-4.59C129.53,359.94,129.57,359.7,129.34,359.57Zm6.1-3.52a1,1,0,0,0,.9-.05l6.47-3.73c.27-.16.31-.39.09-.52l-5.7-3.29a1,1,0,0,0-.91.05l-6.46,3.73c-.28.16-.32.39-.09.52Zm26.19,17-5.7-3.29a1,1,0,0,0-.9.05L142.6,377c-.28.16-.32.39-.09.52l5.7,3.29a1,1,0,0,0,.9-.05l12.43-7.18C161.82,373.41,161.86,373.18,161.63,373.05Zm4.49,7.76-5.7-3.29a1,1,0,0,0-.9.05l-8,4.59c-.27.16-.31.4-.09.53l5.7,3.29a1,1,0,0,0,.91-.06l7.95-4.59C166.31,381.17,166.35,380.94,166.12,380.81Zm39.55-65.3a1,1,0,0,0,.9-.05l6.47-3.74c.27-.15.31-.39.09-.52l-5.7-3.29a1,1,0,0,0-.91,0l-6.46,3.73c-.28.16-.32.4-.09.53Zm-18.89,10.9a1,1,0,0,0,.9-.05l6.47-3.73c.27-.16.31-.39.09-.52l-5.71-3.29a1,1,0,0,0-.9.05l-6.46,3.73c-.28.16-.32.39-.09.52ZM144.89,350.6a1,1,0,0,0,.9-.05l6.46-3.73c.28-.16.32-.4.09-.52l-5.7-3.3a1,1,0,0,0-.9.06l-6.46,3.73c-.28.16-.32.39-.09.52ZM196.22,321a1,1,0,0,0,.91,0l6.46-3.73c.28-.16.32-.4.09-.53l-5.7-3.29a1,1,0,0,0-.9.06l-6.47,3.73c-.27.16-.31.39-.09.52Zm-18.89,10.91a1,1,0,0,0,.91-.05l6.46-3.74c.27-.15.31-.39.09-.52l-5.7-3.29a1,1,0,0,0-.91.05l-6.46,3.73c-.27.16-.31.4-.09.53Zm-6,49.68a1,1,0,0,0-.91.05l-9.94,5.74c-.28.16-.32.39-.09.52l5.7,3.29a1,1,0,0,0,.9,0l10-5.74c.27-.16.31-.39.09-.52Zm-7.6-41.86a1,1,0,0,0,.9-.05l6.46-3.73c.28-.16.32-.39.09-.52l-5.7-3.29a1,1,0,0,0-.9,0l-6.46,3.73c-.28.16-.32.39-.09.52Zm-9.45,5.46a1,1,0,0,0,.91,0l6.46-3.74c.27-.15.31-.39.09-.52l-5.7-3.29a1,1,0,0,0-.91.05l-6.46,3.73c-.27.16-.31.4-.09.53Zm192-64.64a1.05,1.05,0,0,0-.91.06l-15.9,9.18c-.28.16-.32.39-.09.52l5.7,3.29a1,1,0,0,0,.9-.05L352,284.33c.27-.16.32-.39.09-.52Zm-20.88,12.06a1,1,0,0,0-.9.05l-6.47,3.73c-.27.16-.31.4-.09.53l5.7,3.29a1,1,0,0,0,.91-.06l6.46-3.73c.28-.15.32-.39.09-.52ZM197.35,363.25l6.47-3.73c.27-.16.31-.39.09-.52l-5.7-3.3a1,1,0,0,0-.91.06l-6.46,3.73c-.28.16-.32.39-.09.52l5.7,3.29A1,1,0,0,0,197.35,363.25ZM306.6,303.48a1,1,0,0,0-.91,0l-6.46,3.73c-.27.16-.31.39-.09.52l5.7,3.29a1,1,0,0,0,.91-.05l6.46-3.73c.27-.16.31-.39.09-.52Zm49.22-28.42a1,1,0,0,0-.91.05l-6.46,3.73c-.28.16-.32.4-.09.53l5.7,3.29a1,1,0,0,0,.9-.05l6.47-3.73c.27-.16.31-.4.09-.53ZM371,272.9l-14.67-8.47a1,1,0,0,0-.9.05l-6.46,3.74c-.28.15-.32.39-.09.52l14.66,8.46a1,1,0,0,0,.91-.05l6.46-3.73C371.15,273.26,371.19,273,371,272.9Zm-99.66,51a1,1,0,0,0-.9.05l-8,4.59c-.27.16-.31.39-.09.52l5.7,3.29a1,1,0,0,0,.91-.05l8-4.59c.28-.16.32-.39.09-.52Zm23.86-13.78a1,1,0,0,0-.9.05l-9.94,5.74c-.28.16-.32.39-.09.52l5.7,3.29a1,1,0,0,0,.9-.05l9.95-5.74c.27-.16.31-.39.08-.52Zm-45.73,26.4a1,1,0,0,0-.91.06l-53.19,30.71c-.27.16-.32.39-.09.52l5.7,3.29a1,1,0,0,0,.9-.05L255,340.3c.27-.16.31-.39.09-.52Zm-56.18,32.44a1,1,0,0,0-.9.05l-8,4.59c-.27.16-.31.39-.09.52l5.7,3.3a1,1,0,0,0,.91-.06l8-4.59c.28-.16.32-.39.09-.52Zm67.11-38.75a1,1,0,0,0-.9.05l-7.95,4.59c-.28.16-.32.4-.09.53l5.7,3.29a1,1,0,0,0,.9-.05l8-4.6c.27-.16.31-.39.08-.52Zm-78.05,45.06a1,1,0,0,0-.9,0l-7.95,4.6c-.28.16-.32.39-.09.52l5.7,3.29a1,1,0,0,0,.9-.05l7.95-4.59c.28-.16.32-.4.09-.53Zm99.93-57.69a1,1,0,0,0-.91,0l-7.95,4.6c-.27.15-.31.39-.09.52L279,326a1,1,0,0,0,.91-.05l8-4.6c.27-.15.31-.39.09-.52ZM316,298a1,1,0,0,0-.9.06l-6.46,3.73c-.28.15-.32.39-.09.52l5.7,3.29a1,1,0,0,0,.9-.05l6.46-3.73c.28-.16.32-.4.09-.53Zm20.51-15.14,6.46-3.73c.28-.16.32-.39.09-.52l-5.7-3.29a1,1,0,0,0-.9.05L330,279.12c-.28.16-.32.39-.09.52l5.7,3.3A1,1,0,0,0,336.55,282.88Zm-38.81,1.71,6.46-3.74c.28-.15.32-.39.09-.52l-5.7-3.29a1,1,0,0,0-.9,0l-6.46,3.73c-.28.16-.32.4-.09.53l5.7,3.29A1,1,0,0,0,297.74,284.59Zm-24.82,35,18.89-10.9c.27-.16.31-.4.09-.53l-5.7-3.29a1,1,0,0,0-.91.05L266.4,315.86c-.27.16-.31.39-.09.52l5.7,3.29A1,1,0,0,0,272.92,319.62Zm53.28-31.23a1,1,0,0,0,.91-.05l6.46-3.73c.27-.16.31-.4.09-.53l-5.7-3.29a1,1,0,0,0-.91,0l-6.46,3.74c-.27.15-.31.39-.09.52Zm-8.06-5.23,6.46-3.73c.28-.16.32-.39.09-.52l-5.7-3.29a1,1,0,0,0-.9.05l-6.46,3.73c-.28.16-.32.39-.09.52l5.7,3.29A1,1,0,0,0,318.14,283.16Zm-54.67,41.92,6.47-3.74c.27-.15.31-.39.08-.52l-5.7-3.29a1,1,0,0,0-.9.05L257,321.31c-.28.16-.32.4-.09.53l5.7,3.29A1,1,0,0,0,263.47,325.08Zm41.85-24.64a1,1,0,0,0,.91-.05l6.46-3.73c.27-.16.31-.39.09-.52l-5.7-3.29a1,1,0,0,0-.91,0l-6.46,3.73c-.27.16-.31.39-.09.52Zm-89.08,51.9,6.47-3.73c.27-.16.31-.39.09-.52l-5.7-3.29a1,1,0,0,0-.91.05l-6.46,3.73c-.28.16-.32.39-.09.52l5.7,3.29A1,1,0,0,0,216.24,352.34Zm9.45-5.45,6.46-3.73c.28-.16.32-.39.09-.52l-5.7-3.3a1,1,0,0,0-.9.06l-6.46,3.73c-.28.16-.32.39-.1.52l5.71,3.29A1,1,0,0,0,225.69,346.89ZM206.8,357.8l6.46-3.73c.28-.16.32-.4.09-.53l-5.7-3.29a1,1,0,0,0-.9.05L200.28,354c-.27.16-.31.4-.09.53l5.7,3.29A1,1,0,0,0,206.8,357.8ZM244.58,336l6.46-3.73c.28-.16.32-.39.09-.52l-5.7-3.29a1,1,0,0,0-.9.05l-6.46,3.73c-.28.16-.32.39-.09.52l5.7,3.29A1,1,0,0,0,244.58,336Zm-9.44,5.46,6.46-3.74c.27-.15.31-.39.09-.52l-5.7-3.29a1,1,0,0,0-.91.05l-6.46,3.73c-.27.16-.31.4-.09.53l5.7,3.29A1,1,0,0,0,235.14,341.44ZM254,330.53l6.46-3.73c.27-.16.31-.39.09-.52l-5.7-3.3a1,1,0,0,0-.91.06l-6.46,3.73c-.27.16-.31.39-.09.52l5.7,3.29A1,1,0,0,0,254,330.53ZM306.22,255a1,1,0,0,0,.9,0l6.47-3.73c.27-.16.31-.4.09-.53l-1.52-.87a1,1,0,0,0-.9,0l-6.47,3.73c-.27.16-.31.39-.09.52ZM259.1,284.66a1,1,0,0,0,.9-.05l6.46-3.73c.28-.16.32-.39.09-.52l-5.7-3.29a1,1,0,0,0-.9.05l-6.47,3.73c-.27.16-.31.39-.09.52ZM278,273.75a1,1,0,0,0,.9-.05l6.46-3.73c.28-.16.32-.39.09-.52l-5.7-3.29a1,1,0,0,0-.9,0l-6.46,3.73c-.28.16-.32.39-.09.52Zm-30.43,17.57a1,1,0,0,0,.91-.05l6.46-3.73c.27-.16.31-.39.09-.52l-5.7-3.3a1,1,0,0,0-.91.06L242,287.51c-.27.16-.31.39-.09.52Zm21-12.11a1,1,0,0,0,.91,0l6.46-3.74c.27-.15.31-.39.09-.52l-5.7-3.29a1,1,0,0,0-.91.05l-6.46,3.73c-.27.16-.31.4-.09.53Zm-39.87,23a1,1,0,0,0,.9-.05l6.47-3.74c.27-.15.31-.39.09-.52l-5.7-3.29a1,1,0,0,0-.91.05l-6.46,3.73c-.28.16-.32.4-.09.53Zm9.45-5.46a1,1,0,0,0,.9,0l6.46-3.73c.28-.16.32-.39.09-.52l-5.7-3.29a1,1,0,0,0-.9.05L232.51,293c-.28.16-.32.39-.09.52ZM287.33,266a1,1,0,0,0,.9-.06l6.47-3.73c.27-.16.31-.39.09-.52l-1.52-.88a1,1,0,0,0-.91.06l-6.46,3.73c-.27.16-.31.39-.09.52Zm28.34-16.36a1,1,0,0,0,.9-.06L323,245.8c.28-.16.32-.39.09-.52l-1.51-.88a1,1,0,0,0-.91.06l-6.46,3.73c-.28.16-.32.39-.09.52Zm12,6.91a1,1,0,0,0,.91-.05l6.46-3.73c.27-.16.31-.4.09-.53l-5.7-3.29a1,1,0,0,0-.91,0L322,252.69c-.27.15-.31.39-.09.52ZM346,277.43l6.46-3.73c.27-.16.32-.39.09-.52l-5.7-3.29a1,1,0,0,0-.91.05l-6.46,3.73c-.27.16-.31.39-.09.52l5.7,3.29A1,1,0,0,0,346,277.43Zm-49.22-16.94a1,1,0,0,0,.9-.05l6.46-3.73c.28-.16.32-.39.09-.52l-1.52-.88a1,1,0,0,0-.9.05l-6.46,3.73c-.28.16-.32.4-.09.53Zm-77.56,47.19a1,1,0,0,0,.91-.05l6.46-3.73c.28-.16.32-.39.09-.52l-5.7-3.3a1,1,0,0,0-.9.06l-6.47,3.73c-.27.16-.31.39-.09.52Z" style="fill:#455a64"></path><polygon points="248.15 356.46 249.47 357.22 284.67 377.54 347.26 341.4 348.56 340.66 312.04 319.58 248.15 356.46" style="fill:#263238"></polygon><polygon points="346.68 341.74 312.04 321.76 250.05 357.56 284.67 377.54 346.68 341.74" style="fill:#37474f"></polygon></g></g><g id="freepik--Browser--inject-59"><g id="freepik--Www--inject-59"><g id="freepik--www--inject-59"><path d="M386.22,63.42c0-2.63-.92-4.49-2.41-5.36s-10.23-5.92-11.75-6.78-3.57-.73-5.85.59L203,146.13v54l11.7,6.75L377.9,112.65c4.6-2.65,8.32-9.09,8.32-14.4Z" style="fill:#5AEA90"></path><path d="M386.22,63.42c0-2.63-.92-4.49-2.41-5.36s-10.23-5.92-11.75-6.78-3.57-.73-5.85.59L203,146.13v54l11.7,6.75L377.9,112.65c4.6-2.65,8.32-9.09,8.32-14.4Z" style="opacity:0.15"></path><path d="M377.9,58.62c4.6-2.65,8.32-.5,8.32,4.8V98.25c0,5.31-3.72,11.75-8.32,14.4L214.65,206.91v-54Z" style="fill:#5AEA90"></path><path d="M376.23,108.2a12.42,12.42,0,0,0,5.6-9.7V66.32c0-2.54-1.79-3.57-4-2.31L217.94,156.4v43.26Z" style="fill:#fafafa"></path><path d="M245.8,173a1.69,1.69,0,0,1-.17.74,1.11,1.11,0,0,1-.42.51l-2.76,1.59a.31.31,0,0,1-.42,0,.74.74,0,0,1-.17-.54v-8.54a3.58,3.58,0,0,0-.46-2.06c-.31-.41-.79-.42-1.45,0a3.32,3.32,0,0,0-1.44,1.7,7.25,7.25,0,0,0-.44,2.59v8.54a1.72,1.72,0,0,1-.18.75,1.23,1.23,0,0,1-.42.51l-2.76,1.59a.31.31,0,0,1-.42,0,.74.74,0,0,1-.17-.54V157.58a1.81,1.81,0,0,1,.17-.74,1.11,1.11,0,0,1,.42-.51l2.76-1.6a.33.33,0,0,1,.42,0,.7.7,0,0,1,.18.54v7.19a10,10,0,0,1,1.16-2,5.77,5.77,0,0,1,1.82-1.71,4.41,4.41,0,0,1,1.93-.65,1.93,1.93,0,0,1,1.5.53,3.94,3.94,0,0,1,1,1.83,12.12,12.12,0,0,1,.35,3.24Z" style="fill:#455a64"></path><path d="M253.39,162.66a1.88,1.88,0,0,0,.22,1.07c.14.19.39.2.72,0l1.76-1a.31.31,0,0,1,.41,0,.7.7,0,0,1,.18.54v3.41a1.68,1.68,0,0,1-.18.74,1,1,0,0,1-.41.51l-2.09,1.2a4.06,4.06,0,0,1-1.87.63,2,2,0,0,1-1.44-.49,3.35,3.35,0,0,1-.92-1.56,8.68,8.68,0,0,1-.33-2.59v-5.67l-1.62.93a.31.31,0,0,1-.42,0,.74.74,0,0,1-.17-.54v-3.41a1.85,1.85,0,0,1,.17-.74,1.11,1.11,0,0,1,.42-.51l1.62-.94v-5.5a1.68,1.68,0,0,1,.18-.74,1.1,1.1,0,0,1,.41-.51l2.77-1.59a.3.3,0,0,1,.41,0,.73.73,0,0,1,.18.54V152l2.48-1.43a.3.3,0,0,1,.41,0,.73.73,0,0,1,.18.54v3.41a1.72,1.72,0,0,1-.18.75,1.09,1.09,0,0,1-.41.51l-2.48,1.43Z" style="fill:#455a64"></path><path d="M263.78,156.66a1.88,1.88,0,0,0,.22,1.07q.22.3.72,0l1.76-1a.31.31,0,0,1,.41,0,.7.7,0,0,1,.18.54v3.41a1.68,1.68,0,0,1-.18.74,1,1,0,0,1-.41.51l-2.08,1.2a4.13,4.13,0,0,1-1.88.63,2,2,0,0,1-1.44-.49,3.35,3.35,0,0,1-.92-1.56,9,9,0,0,1-.33-2.59v-5.67l-1.62.93a.29.29,0,0,1-.41,0,.7.7,0,0,1-.18-.54v-3.41a1.71,1.71,0,0,1,.18-.74,1.09,1.09,0,0,1,.41-.51l1.62-.94v-5.5A1.71,1.71,0,0,1,260,142a1.11,1.11,0,0,1,.42-.51l2.76-1.59a.32.32,0,0,1,.42,0,.78.78,0,0,1,.17.54V146l2.48-1.43a.31.31,0,0,1,.42,0,.74.74,0,0,1,.17.54v3.4a1.86,1.86,0,0,1-.17.75,1.16,1.16,0,0,1-.42.51l-2.48,1.43Z" style="fill:#455a64"></path><path d="M275.82,156.9a3.52,3.52,0,0,1-1.12.44,1.88,1.88,0,0,1-.83,0,1.43,1.43,0,0,1-.6-.31,3,3,0,0,1-.39-.43v7.19a1.71,1.71,0,0,1-.18.74,1,1,0,0,1-.41.51l-2.77,1.6a.31.31,0,0,1-.41,0,.69.69,0,0,1-.18-.53V143.89a1.71,1.71,0,0,1,.18-.74,1.1,1.1,0,0,1,.41-.51l2.66-1.53a.31.31,0,0,1,.41,0,.7.7,0,0,1,.18.54v.77c.13-.3.27-.61.43-.95a5.5,5.5,0,0,1,.57-1,5.94,5.94,0,0,1,.83-.95,6,6,0,0,1,1.22-.89,4.17,4.17,0,0,1,1.86-.62,2,2,0,0,1,1.53.53,4.08,4.08,0,0,1,1.07,1.8,11.1,11.1,0,0,1,.45,3.18c0,.33,0,.78,0,1.36s0,1,0,1.38a17.51,17.51,0,0,1-.45,3.7,14.55,14.55,0,0,1-1.07,3,9.73,9.73,0,0,1-1.53,2.32A7.78,7.78,0,0,1,275.82,156.9Zm1-8.74a11.92,11.92,0,0,0,0-1.89,3.41,3.41,0,0,0-.5-1.77c-.29-.41-.78-.43-1.47,0a3,3,0,0,0-.83.72,3.9,3.9,0,0,0-.58,1,5.89,5.89,0,0,0-.37,1.07,8.08,8.08,0,0,0-.17,1.08c0,.35,0,.75,0,1.21s0,.83,0,1.15a4.58,4.58,0,0,0,.17.88,1.79,1.79,0,0,0,.37.65.84.84,0,0,0,.58.29,1.44,1.44,0,0,0,.83-.25,3.27,3.27,0,0,0,1.47-1.72A7.53,7.53,0,0,0,276.8,148.16Z" style="fill:#455a64"></path><path d="M286.82,137.48a1.78,1.78,0,0,1-.17.74,1.11,1.11,0,0,1-.42.51l-2.87,1.66a.33.33,0,0,1-.42,0,.7.7,0,0,1-.17-.54V135.4a1.66,1.66,0,0,1,.17-.74,1.11,1.11,0,0,1,.42-.51l2.87-1.66a.33.33,0,0,1,.42,0,.74.74,0,0,1,.17.54Zm0,11.82a1.85,1.85,0,0,1-.17.74,1.11,1.11,0,0,1-.42.51l-2.87,1.66a.33.33,0,0,1-.42,0,.73.73,0,0,1-.17-.54v-4.43a1.69,1.69,0,0,1,.17-.74,1.11,1.11,0,0,1,.42-.51l2.87-1.66a.33.33,0,0,1,.42,0,.78.78,0,0,1,.17.54Z" style="fill:#455a64"></path><path d="M295.94,119.42a4.13,4.13,0,0,1,.33-.88,1.59,1.59,0,0,1,.64-.69l2.71-1.57a.27.27,0,0,1,.34,0,.57.57,0,0,1,.15.44,1.56,1.56,0,0,1-.05.33l-7.38,31.57a4.7,4.7,0,0,1-.31.85,1.64,1.64,0,0,1-.66.72L289,151.76a.26.26,0,0,1-.34,0,.57.57,0,0,1-.15-.44,1.56,1.56,0,0,1,.05-.33Z" style="fill:#455a64"></path><path d="M303.46,115.08a4.13,4.13,0,0,1,.33-.88,1.59,1.59,0,0,1,.64-.69l2.72-1.57a.26.26,0,0,1,.34,0,.59.59,0,0,1,.14.44,1.56,1.56,0,0,1-.05.33l-7.38,31.57a5,5,0,0,1-.31.85,1.64,1.64,0,0,1-.66.72l-2.67,1.54a.26.26,0,0,1-.34,0,.57.57,0,0,1-.15-.44,1.56,1.56,0,0,1,.05-.33Z" style="fill:#455a64"></path><path d="M318,114.68c.22-.13.39-.13.51,0a1,1,0,0,1,.24.4l1.62,6.73,1.62-8.6a4,4,0,0,1,.24-.68,1.21,1.21,0,0,1,.51-.56l2.72-1.57a.27.27,0,0,1,.37,0,.66.66,0,0,1,.15.48,1.46,1.46,0,0,1,0,.29l-3.49,17.64a3.51,3.51,0,0,1-.22.7,1.24,1.24,0,0,1-.5.56l-2.5,1.44c-.22.13-.38.13-.48,0a1.43,1.43,0,0,1-.24-.44l-1.56-6.18-1.55,8a3.75,3.75,0,0,1-.25.71,1.08,1.08,0,0,1-.48.55l-2.5,1.45c-.22.12-.38.13-.49,0a.93.93,0,0,1-.23-.44l-3.49-13.61a2.28,2.28,0,0,1,0-.26,1.4,1.4,0,0,1,.16-.66,1,1,0,0,1,.37-.46l2.72-1.57c.22-.12.38-.13.5,0a.88.88,0,0,1,.24.4l1.62,6.73,1.63-8.6a2.94,2.94,0,0,1,.24-.68,1.19,1.19,0,0,1,.5-.56Z" style="fill:#455a64"></path><path d="M336.94,103.72c.22-.13.39-.13.5,0a.83.83,0,0,1,.24.4l1.63,6.72,1.62-8.59a2.65,2.65,0,0,1,.24-.68,1.27,1.27,0,0,1,.5-.57l2.72-1.56a.29.29,0,0,1,.38,0,.66.66,0,0,1,.15.48,2.64,2.64,0,0,1,0,.28l-3.49,17.64a2.93,2.93,0,0,1-.23.71,1.17,1.17,0,0,1-.49.56l-2.5,1.44c-.22.13-.38.13-.48,0a1.26,1.26,0,0,1-.25-.44l-1.55-6.19-1.56,8a5,5,0,0,1-.24.71,1.12,1.12,0,0,1-.48.55l-2.5,1.45c-.22.12-.39.13-.49,0a.93.93,0,0,1-.23-.44l-3.49-13.62a2,2,0,0,1,0-.25,1.59,1.59,0,0,1,.15-.67,1.07,1.07,0,0,1,.37-.45l2.72-1.57c.22-.12.39-.13.51,0a1,1,0,0,1,.24.4l1.62,6.73,1.62-8.6a4,4,0,0,1,.24-.68,1.26,1.26,0,0,1,.51-.56Z" style="fill:#455a64"></path><path d="M355.92,92.76c.22-.13.39-.13.51,0a.86.86,0,0,1,.24.4l1.62,6.72,1.62-8.6a3.3,3.3,0,0,1,.25-.67,1.21,1.21,0,0,1,.5-.57l2.72-1.57a.3.3,0,0,1,.37,0,.68.68,0,0,1,.15.49,1.37,1.37,0,0,1,0,.28l-3.48,17.64a3.45,3.45,0,0,1-.23.71,1.17,1.17,0,0,1-.5.55l-2.5,1.45c-.22.13-.38.13-.48,0a1.55,1.55,0,0,1-.24-.44L354.89,103l-1.55,8a5,5,0,0,1-.24.71,1.19,1.19,0,0,1-.49.55l-2.5,1.44c-.21.13-.38.14-.49,0a1.09,1.09,0,0,1-.23-.44l-3.48-13.62a1,1,0,0,1,0-.25,1.47,1.47,0,0,1,.16-.67,1,1,0,0,1,.37-.45l2.72-1.57c.22-.13.38-.13.5,0a.83.83,0,0,1,.24.4l1.62,6.73,1.63-8.6a2.79,2.79,0,0,1,.24-.68,1.19,1.19,0,0,1,.5-.56Z" style="fill:#455a64"></path><path d="M368.75,102a1.72,1.72,0,0,1-.18.75,1.14,1.14,0,0,1-.41.51l-2.87,1.65a.32.32,0,0,1-.42,0,.73.73,0,0,1-.18-.54V99.91a1.71,1.71,0,0,1,.18-.74,1.05,1.05,0,0,1,.42-.51L368.16,97a.31.31,0,0,1,.41,0,.7.7,0,0,1,.18.54Z" style="fill:#455a64"></path></g><g id="freepik--World--inject-59"><g id="freepik--Check--inject-59"><g id="freepik--Circle--inject-59"><path d="M207.44,137.15h0l-.08-.05h0l-20-11.88h0l-.11-.07h0c-8.81-5.32-20.57-4.48-33.21,3.78-25.41,16.59-44.77,56.82-43.24,89.86.76,16.47,6.56,28.05,15.34,33.46h0l.08.05h0l20,11.88h0l.09.06h0c8.81,5.33,20.58,4.5,33.24-3.77,25.4-16.58,44.76-56.82,43.24-89.86C222,154.14,216.22,142.57,207.44,137.15Z" style="fill:#37474f"></path><path d="M145.57,263.78,126.2,252.3h0l-.08-.07c-8.78-5.42-14.58-17-15.34-33.44-.68-14.74,2.8-30.89,9.1-45.74l.13-.33,19.88,12.21c-6.31,14.84-9.78,31-9.1,45.74C131.52,246.79,137.1,258.22,145.57,263.78Z" style="fill:#263238"></path><path d="M179.55,260.47c25.4-16.58,44.76-56.82,43.24-89.86s-23.36-46.39-48.76-29.8-44.77,56.83-43.24,89.87S154.14,277.06,179.55,260.47Z" style="fill:#455a64"></path></g></g><path d="M165.21,251.75a18.68,18.68,0,0,1-9.47-2.48c-8-4.6-12.59-15.15-12.59-29,0-25.39,15.43-55,34.4-66.06,8.62-5,17-5.66,23.73-1.82,8,4.6,12.59,15.16,12.59,29,0,25.38-15.43,55-34.4,66A28.61,28.61,0,0,1,165.21,251.75ZM191.8,153.8a24.86,24.86,0,0,0-12.33,3.77C161.55,168,147,196.14,147,220.32c0,12.39,3.89,21.73,10.68,25.64,5.44,3.13,12.51,2.48,19.9-1.82,17.92-10.42,32.5-38.57,32.5-62.74,0-12.4-3.89-21.74-10.68-25.65A15,15,0,0,0,191.8,153.8Z" style="fill:#5AEA90"></path><path d="M165.2,188.27a18.17,18.17,0,0,1-11.42-3.93l1.77-2.26c5.85,4.58,13.74,4.38,22.24-.56,8.8-5.12,17.07-14.61,23.29-26.71l2.55,1.31c-6.46,12.59-15.13,22.49-24.4,27.88A28.24,28.24,0,0,1,165.2,188.27Z" style="fill:#5AEA90"></path><path d="M155.94,246.9l-2.55-1.31c6.46-12.58,15.13-22.48,24.4-27.88,9.58-5.57,18.62-5.69,25.45-.34l-1.77,2.26c-5.85-4.58-13.74-4.38-22.24.56C170.43,225.31,162.16,234.8,155.94,246.9Z" style="fill:#5AEA90"></path><path d="M174.81,248.33a7.66,7.66,0,0,1-3.88-1.08C164.19,243.38,160,229.4,160,210.79c0-25.67,7.82-50.31,17.79-56.11a7.9,7.9,0,0,1,8.3-.22c6.74,3.88,10.93,17.85,10.93,36.46,0,25.67-7.82,50.31-17.79,56.12A8.86,8.86,0,0,1,174.81,248.33Zm7.4-92.08a5.83,5.83,0,0,0-3,.91c-8.87,5.15-16.36,29.71-16.36,53.63,0,19.7,4.77,31.26,9.49,34a5.09,5.09,0,0,0,5.43-.21c8.87-5.16,16.36-29.72,16.36-53.64,0-19.7-4.77-31.26-9.49-34A4.87,4.87,0,0,0,182.21,156.25Z" style="fill:#5AEA90"></path><rect x="177.08" y="155.92" width="2.87" height="89.88" style="fill:#5AEA90"></rect><rect x="139.81" y="199.42" width="77.4" height="2.87" transform="matrix(0.86, -0.5, 0.5, 0.86, -76.8, 117.03)" style="fill:#5AEA90"></rect></g></g></g><g id="freepik--Cursor--inject-59"><g id="freepik--cursor--inject-59"><path d="M412.59,137.48a3.11,3.11,0,0,0-1.19-1.39h0l-3-1.72h0c-1.29-.75-2.88,0-3.72.5l-1.86-1.07h0c-2.25-1.36-5.39,1.49-6.09,2.17l-.81-.46h0c-1.06-.64-2.5-.24-3.79.41V125.09a2.73,2.73,0,0,0-1.06-2.44h0l0,0-.05,0-2.93-1.7h0a2.72,2.72,0,0,0-2.68.28,8.46,8.46,0,0,0-3.82,6.63V161a4.69,4.69,0,0,0-.46-.21c-2.61-1.85-5.36-2.94-7.78-2.51a8.26,8.26,0,0,0-5,3.44c-1.26,2.23.82,3.63,3.51,6.7s5,6.72,7.45,9a13.18,13.18,0,0,0,4.19,2.85v4.34l2.95,1.71,22.48-13V169s2.79-11.12,3.68-15.77S414.31,141.05,412.59,137.48Z" style="fill:#5AEA90"></path><path d="M412.59,137.48a3.11,3.11,0,0,0-1.19-1.39h0l-3-1.72h0c-1.29-.75-2.88,0-3.72.5l-1.86-1.07h0c-2.25-1.36-5.39,1.49-6.09,2.17l-.81-.46h0c-1.06-.64-2.5-.24-3.79.41V125.09a2.73,2.73,0,0,0-1.06-2.44h0l0,0-.05,0-2.93-1.7h0a2.72,2.72,0,0,0-2.68.28,8.46,8.46,0,0,0-3.82,6.63V161a4.69,4.69,0,0,0-.46-.21c-2.61-1.85-5.36-2.94-7.78-2.51a8.26,8.26,0,0,0-5,3.44c-1.26,2.23.82,3.63,3.51,6.7s5,6.72,7.45,9a13.18,13.18,0,0,0,4.19,2.85v4.34l2.95,1.71,22.48-13V169s2.79-11.12,3.68-15.77S414.31,141.05,412.59,137.48Z" style="fill:#fff;opacity:0.8"></path><path d="M392.16,136v3.67h0a16.16,16.16,0,0,1,2.89-2Zm13.58-1.6a6.58,6.58,0,0,0-1,.51l1,.56a3.33,3.33,0,0,1,1.41,1.55,7,7,0,0,1,1.7-1Zm-7,0a12.69,12.69,0,0,0-2,1.58l1.94,1.13a.41.41,0,0,1,.11.07,2.2,2.2,0,0,1,.76.65h0a12.66,12.66,0,0,1,2.07-1.68Zm-17.19-6.59V161a18.68,18.68,0,0,1,2.95,1.82V129.51ZM392.14,136h0v0Zm-9.9,43.15c-2.43-2.26-4.78-5.93-7.44-9-2.52-2.89-4.53-4.3-3.7-6.31l-3-1.71c-.82,2,1.17,3.42,3.7,6.32s5,6.71,7.44,9a13.31,13.31,0,0,0,4.19,2.85v4.35l3,1.7V182A13.13,13.13,0,0,1,382.24,179.11Z" style="fill:#5AEA90;opacity:0.2"></path><path d="M392.16,136v3.67h0a16.16,16.16,0,0,1,2.89-2Zm13.58-1.6a6.58,6.58,0,0,0-1,.51l1,.56a3.33,3.33,0,0,1,1.41,1.55,7,7,0,0,1,1.7-1Zm-7,0a12.69,12.69,0,0,0-2,1.58l1.94,1.13a.41.41,0,0,1,.11.07,2.2,2.2,0,0,1,.76.65h0a12.66,12.66,0,0,1,2.07-1.68Zm-17.19-6.59V161a18.68,18.68,0,0,1,2.95,1.82V129.51ZM392.14,136h0v0Zm-9.9,43.15c-2.43-2.26-4.78-5.93-7.44-9-2.52-2.89-4.53-4.3-3.7-6.31l-3-1.71c-.82,2,1.17,3.42,3.7,6.32s5,6.71,7.44,9a13.31,13.31,0,0,0,4.19,2.85v4.35l3,1.7V182A13.13,13.13,0,0,1,382.24,179.11Z" style="opacity:0.1"></path><path d="M386.43,186.31V182a13.13,13.13,0,0,1-4.19-2.86c-2.43-2.26-4.78-5.93-7.44-9s-4.78-4.47-3.51-6.71a8.27,8.27,0,0,1,5-3.43c2.57-.46,5.49.79,8.24,2.83V129.51a8.46,8.46,0,0,1,3.83-6.62h0c2.11-1.22,3.82-.23,3.82,2.2v14.55s5.28-4.68,7.41-1.81c0,0,5.18-5.42,7.51-.84,0,0,3.81-3.07,5.52.49s.89,11.09,0,15.74S408.91,169,408.91,169v4.34Z" style="fill:#5AEA90"></path><path d="M386.43,186.31V182a13.13,13.13,0,0,1-4.19-2.86c-2.43-2.26-4.78-5.93-7.44-9s-4.78-4.47-3.51-6.71a8.27,8.27,0,0,1,5-3.43c2.57-.46,5.49.79,8.24,2.83V129.51a8.46,8.46,0,0,1,3.83-6.62h0c2.11-1.22,3.82-.23,3.82,2.2v14.55s5.28-4.68,7.41-1.81c0,0,5.18-5.42,7.51-.84,0,0,3.81-3.07,5.52.49s.89,11.09,0,15.74S408.91,169,408.91,169v4.34Z" style="fill:#fff;opacity:0.65"></path><g style="opacity:0.1"><path d="M392.15,145.89s.48-6.64,2.92-8.22l-.08,0a16,16,0,0,0-2.84,1.94v-.12a.19.19,0,0,0,0,.12Z"></path><path d="M399.56,137.83v6.07s.67-6.24,2.07-7.75A12.56,12.56,0,0,0,399.56,137.83Z"></path><path d="M407.07,137h0v6.09s.38-6.14,1.7-7A7.24,7.24,0,0,0,407.07,137Z"></path></g></g></g></svg>