<svg xmlns="http://www.w3.org/2000/svg"  viewBox="0 0 488.058 442.742"><g transform="translate(-332.4 -3051.958)"><g transform="translate(46 2743)"><rect width="301.1" height="145.3" transform="translate(671.988 376.64) rotate(115.989)" fill="#77ba85"/><rect width="301.1" height="145.3" transform="translate(671.988 376.64) rotate(115.989)" stroke-width="6" stroke="#474747" stroke-linecap="round" stroke-linejoin="round" stroke-miterlimit="10" fill="none"/><path d="M620.3,369.9l-41.8-20.4a32.734,32.734,0,0,1-43.8,15.1l-103,211.2,100.7,49.1,103-211.2A32.649,32.649,0,0,1,620.3,369.9Z" fill="#f6f9ea"/><path d="M620.3,369.9l-41.8-20.4a32.734,32.734,0,0,1-43.8,15.1l-103,211.2,100.7,49.1,103-211.2A32.649,32.649,0,0,1,620.3,369.9Z" fill="none" stroke="#474747" stroke-linecap="round" stroke-linejoin="round" stroke-miterlimit="10" stroke-width="6"/><rect width="112" height="267.8" transform="translate(549.065 335.183) rotate(25.989)" stroke-width="6" stroke="#474747" stroke-linecap="round" stroke-linejoin="round" stroke-miterlimit="10" fill="none"/><circle cx="34.3" cy="34.3" r="34.3" transform="translate(516.4 424.7)" fill="#77ba85"/><circle cx="34.3" cy="34.3" r="34.3" transform="translate(516.4 424.7)" fill="none" stroke="#474747" stroke-linecap="round" stroke-linejoin="round" stroke-miterlimit="10" stroke-width="6"/></g><g transform="translate(46 2743)"><rect width="301.1" height="145.3" transform="translate(770.236 469.368) rotate(140.653)" fill="#97cd78"/><rect width="301.1" height="145.3" transform="translate(770.236 469.368) rotate(140.653)" stroke-width="6" stroke="#474747" stroke-linecap="round" stroke-linejoin="round" stroke-miterlimit="10" fill="none"/><path d="M726,441.7l-29.5-35.9a32.727,32.727,0,0,1-46.1-4.6l-181.7,149,71,86.6,181.7-149A32.736,32.736,0,0,1,726,441.7Z" fill="#f6f9ea"/><path d="M726,441.7l-29.5-35.9a32.727,32.727,0,0,1-46.1-4.6l-181.7,149,71,86.6,181.7-149A32.736,32.736,0,0,1,726,441.7Z" fill="none" stroke="#474747" stroke-linecap="round" stroke-linejoin="round" stroke-miterlimit="10" stroke-width="6"/><rect width="112" height="267.8" transform="translate(675.701 380.473) rotate(50.653)" stroke-width="6" stroke="#474747" stroke-linecap="round" stroke-linejoin="round" stroke-miterlimit="10" fill="none"/><circle cx="34.3" cy="34.3" r="34.3" transform="translate(591.3 459.4)" fill="#97cd78"/><circle cx="34.3" cy="34.3" r="34.3" transform="translate(591.3 459.4)" fill="none" stroke="#474747" stroke-linecap="round" stroke-linejoin="round" stroke-miterlimit="10" stroke-width="6"/><path d="M629.4,457.7a70.056,70.056,0,0,0-17.6-46.4L445.2,547.9l92.2,112.4,92.1-75.5V457.7Z" fill="#474747" stroke="#474747" stroke-linecap="round" stroke-linejoin="round" stroke-miterlimit="10" stroke-width="6" opacity="0.32"/></g><g transform="translate(46 2743)"><path d="M559.4,748.7h-210a60.048,60.048,0,0,1-60-60v-236a60.048,60.048,0,0,1,60-60h210a60.048,60.048,0,0,1,60,60v236A59.92,59.92,0,0,1,559.4,748.7Z" fill="#f58870"/><path d="M559.4,748.7h-210a60.048,60.048,0,0,1-60-60v-236a60.048,60.048,0,0,1,60-60h210a60.048,60.048,0,0,1,60,60v236A59.92,59.92,0,0,1,559.4,748.7Z" fill="#234361"/><path d="M559.4,736.6h-210a60.048,60.048,0,0,1-60-60v12.1a60.048,60.048,0,0,0,60,60h210a60.048,60.048,0,0,0,60-60V676.6A59.983,59.983,0,0,1,559.4,736.6Z" fill="#304a63"/><path d="M559.4,392.7h-210c-33.1,0-60,24.7-60,55.1v12.9c0-30.4,26.9-55.1,60-55.1h210c33.1,0,60,24.7,60,55.1V447.8C619.4,417.4,592.6,392.7,559.4,392.7Z" fill="#3c6a96"/><path d="M489.4,539.2h-54a18.053,18.053,0,0,1-18-18V410.7a18.053,18.053,0,0,1,18-18h72V521.2A17.989,17.989,0,0,1,489.4,539.2Z" fill="#474747" stroke="#474747" stroke-linecap="round" stroke-linejoin="round" stroke-miterlimit="10" stroke-width="6" opacity="0.3"/><path d="M559.4,748.7h-210a60.048,60.048,0,0,1-60-60v-236a60.048,60.048,0,0,1,60-60h210a60.048,60.048,0,0,1,60,60v236A59.92,59.92,0,0,1,559.4,748.7Z" fill="none" stroke="#474747" stroke-linecap="round" stroke-linejoin="round" stroke-miterlimit="10" stroke-width="6"/><g opacity="0.46"><path d="M311.4,687.2v-233a37.983,37.983,0,0,1,38-38h210a37.983,37.983,0,0,1,38,38V687.1a37.983,37.983,0,0,1-38,38h-210A37.834,37.834,0,0,1,311.4,687.2Z" fill="none" stroke="#eff3f5" stroke-linecap="round" stroke-linejoin="round" stroke-width="4" stroke-dasharray="13.958 9.97"/></g><path d="M481.4,528.2h-54a18.053,18.053,0,0,1-18-18v-122a18.053,18.053,0,0,1,18-18h54a18.053,18.053,0,0,1,18,18v122A17.989,17.989,0,0,1,481.4,528.2Z" fill="#3c6a96"/><path d="M481.4,519.9h-54a18.053,18.053,0,0,1-18-18v8.3a18.053,18.053,0,0,0,18,18h54a18.053,18.053,0,0,0,18-18v-8.3A17.989,17.989,0,0,1,481.4,519.9Z" fill="#234361" opacity="0.19"/><path d="M481.4,370.2h-54a18.053,18.053,0,0,0-18,18V395a18.053,18.053,0,0,1,18-18h54a18.053,18.053,0,0,1,18,18v-6.8A17.989,17.989,0,0,0,481.4,370.2Z" fill="#5389bb"/><path d="M481.4,528.2h-54a18.053,18.053,0,0,1-18-18v-122a18.053,18.053,0,0,1,18-18h54a18.053,18.053,0,0,1,18,18v122A17.989,17.989,0,0,1,481.4,528.2Z" fill="none" stroke="#474747" stroke-linecap="round" stroke-linejoin="round" stroke-miterlimit="10" stroke-width="6"/><circle cx="23.2" cy="23.2" r="23.2" transform="translate(434.2 456)" fill="#474747" opacity="0.3" stroke-linecap="round" stroke-linejoin="round" stroke-miterlimit="10" stroke-width="6" stroke="#474747"/><g opacity="0.46"><path d="M427.4,516.2a6.018,6.018,0,0,1-6-6v-122a6.018,6.018,0,0,1,6-6h54a6.018,6.018,0,0,1,6,6v122a6.018,6.018,0,0,1-6,6Z" fill="none" stroke="#474747" stroke-linecap="round" stroke-linejoin="round" stroke-width="4" stroke-dasharray="9.839 11.807"/></g><circle cx="23.2" cy="23.2" r="23.2" transform="translate(431.2 450)" fill="#8f6d5d"/><circle cx="23.2" cy="23.2" r="23.2" transform="translate(431.2 450)" fill="none" stroke="#474747" stroke-linecap="round" stroke-linejoin="round" stroke-miterlimit="10" stroke-width="6"/><g opacity="0.6"><path d="M464.2,461.3c.8,3.8-3.7,6.2-10.3,7.6-6.7,1.3-12.7,1.5-13.5-1.7-.8-3.1,3.7-9,10.3-10.9C457.4,454.4,463.4,457.6,464.2,461.3Z" fill="#fffcee"/></g></g></g></svg>